<svg id="Layer_1" data-name="Layer 1" xmlns="http://www.w3.org/2000/svg" viewBox="0 0 485.65 127.62"><defs><style>.cls-1{fill:#3f4c83;}</style></defs><path class="cls-1" d="M242.28,118.39a42,42,0,0,1-30.64-12.89,44,44,0,0,1-9.15-14.22,46.76,46.76,0,0,1-3.29-17.64,45.94,45.94,0,0,1,3.29-17.46A44.28,44.28,0,0,1,211.64,42a43.07,43.07,0,0,1,13.67-9.54,41.56,41.56,0,0,1,17-3.46,43.87,43.87,0,0,1,14.78,2.23,42.72,42.72,0,0,1,12.45,7.37A6.3,6.3,0,0,1,270.9,40a4.15,4.15,0,0,1,.67,1.46,7.81,7.81,0,0,1,.17,1.72,4.76,4.76,0,0,1-1.51,3.58,5.54,5.54,0,0,1-3.68,1.56,5.81,5.81,0,0,1-4.07-1.45,33.39,33.39,0,0,0-8.54-5.47,30,30,0,0,0-11.66-1.9,29.3,29.3,0,0,0-12.39,2.68,32.71,32.71,0,0,0-10.21,7.37,34,34,0,0,0-6.87,10.88,37.22,37.22,0,0,0,0,26.56,34.1,34.1,0,0,0,6.87,10.88,32.06,32.06,0,0,0,10.21,7.31,30.66,30.66,0,0,0,23.16.67,41.66,41.66,0,0,0,9.76-5.41,5.87,5.87,0,0,1,4-1.29,5.09,5.09,0,0,1,3.3,1.56,5.37,5.37,0,0,1,1.33,3.86,6.21,6.21,0,0,1-.39,2.17,4.9,4.9,0,0,1-1.39,2,41,41,0,0,1-12.83,7.3A44,44,0,0,1,242.28,118.39Zm29.12-13.83-11.16-2.24v-20h-15.4a6.14,6.14,0,0,1-4.13-1.45,4.9,4.9,0,0,1,0-7.37,6.09,6.09,0,0,1,4.13-1.45h20.87a5.48,5.48,0,0,1,4.13,1.62,5.77,5.77,0,0,1,1.56,4.18Z"/><path class="cls-1" d="M296.59,117.28a14.75,14.75,0,0,1-8.7-2.68,17.75,17.75,0,0,1-5.91-7.31,25.26,25.26,0,0,1-2.13-10.66V35.7a5.58,5.58,0,1,1,11.16,0V96.63a13.28,13.28,0,0,0,1.57,6.81c1,1.78,2.38,2.68,4,2.68h2.79a4.64,4.64,0,0,1,3.63,1.56,5.81,5.81,0,0,1,1.4,4,4.82,4.82,0,0,1-2.12,4,9,9,0,0,1-5.47,1.56Z"/><path class="cls-1" d="M330.94,117.72a26.8,26.8,0,0,1-14.62-4.07A29,29,0,0,1,306.1,102.6a32.91,32.91,0,0,1-3.73-15.79A31,31,0,0,1,306.44,71a30.8,30.8,0,0,1,53.34,0,31,31,0,0,1,4.08,15.85h-4.35a32.91,32.91,0,0,1-3.74,15.79,29,29,0,0,1-10.21,11.05A26.85,26.85,0,0,1,330.94,117.72Zm2.23-10A19,19,0,0,0,343.32,105a19.47,19.47,0,0,0,7-7.48,23.62,23.62,0,0,0,0-21.43,19.47,19.47,0,0,0-7-7.48,20.14,20.14,0,0,0-20.25,0A19.77,19.77,0,0,0,315.92,76a23.22,23.22,0,0,0,0,21.43,19.77,19.77,0,0,0,7.15,7.48A19.15,19.15,0,0,0,333.17,107.68Zm25,9.71a5.54,5.54,0,0,1-5.7-5.69V94.62l2.13-11.83,9.26,4V111.7a5.54,5.54,0,0,1-5.69,5.69Z"/><path class="cls-1" d="M396.3,117.72a42.21,42.21,0,0,1-14.45-2.39,27.56,27.56,0,0,1-10.32-6.09,4.87,4.87,0,0,1-1.4-4.07,5.39,5.39,0,0,1,2.18-3.74,5.83,5.83,0,0,1,4.41-1.51,6,6,0,0,1,3.73,2,17.88,17.88,0,0,0,6.09,4,22.84,22.84,0,0,0,9.32,1.84q6.47,0,9.87-2.12a6.58,6.58,0,0,0,3.52-5.47c.07-2.23-1-4.17-3.18-5.8s-6.2-3-12-4q-11.28-2.23-16.35-6.7a14,14,0,0,1-5.08-10.93A13.6,13.6,0,0,1,376,63.21a20.19,20.19,0,0,1,8.59-5.58,32.77,32.77,0,0,1,10.94-1.84,34.15,34.15,0,0,1,13.06,2.34,22.28,22.28,0,0,1,9,6.47,5.18,5.18,0,0,1,1.45,3.74,4.34,4.34,0,0,1-1.9,3.29,5.45,5.45,0,0,1-4.24.78,8,8,0,0,1-4.13-2,15.17,15.17,0,0,0-6-3.69,25.2,25.2,0,0,0-7.47-1A18.81,18.81,0,0,0,387,67.39q-3.41,1.68-3.4,4.91a6.46,6.46,0,0,0,1.06,3.63,8.89,8.89,0,0,0,4.18,2.9A52.82,52.82,0,0,0,398,81.34a50,50,0,0,1,13.22,4.24,17.75,17.75,0,0,1,7,6,14.62,14.62,0,0,1,2.12,7.87,16.48,16.48,0,0,1-2.74,9.27,18.82,18.82,0,0,1-8,6.58A31.45,31.45,0,0,1,396.3,117.72Z"/><path class="cls-1" d="M450.17,117.72a42.25,42.25,0,0,1-14.45-2.39,27.64,27.64,0,0,1-10.32-6.09,4.87,4.87,0,0,1-1.4-4.07,5.39,5.39,0,0,1,2.18-3.74,5.85,5.85,0,0,1,4.41-1.51,6.08,6.08,0,0,1,3.74,2,17.73,17.73,0,0,0,6.08,4,22.84,22.84,0,0,0,9.32,1.84q6.47,0,9.88-2.12a6.59,6.59,0,0,0,3.51-5.47c.07-2.23-1-4.17-3.18-5.8s-6.19-3-12-4q-11.26-2.23-16.35-6.7a14,14,0,0,1-5.07-10.93,13.6,13.6,0,0,1,3.34-9.43,20.23,20.23,0,0,1,8.6-5.58,32.67,32.67,0,0,1,10.93-1.84,34.11,34.11,0,0,1,13.06,2.34,22.21,22.21,0,0,1,9,6.47,5.18,5.18,0,0,1,1.45,3.74,4.31,4.31,0,0,1-1.9,3.29,5.45,5.45,0,0,1-4.24.78,8,8,0,0,1-4.13-2,15.21,15.21,0,0,0-6-3.69,25.27,25.27,0,0,0-7.48-1,18.73,18.73,0,0,0-8.31,1.67q-3.41,1.68-3.41,4.91a6.46,6.46,0,0,0,1.06,3.63,8.88,8.88,0,0,0,4.19,2.9,52.41,52.41,0,0,0,9.15,2.51,49.84,49.84,0,0,1,13.22,4.24,17.75,17.75,0,0,1,7,6,14.62,14.62,0,0,1,2.12,7.87,16.4,16.4,0,0,1-2.74,9.27,18.82,18.82,0,0,1-8,6.58A31.42,31.42,0,0,1,450.17,117.72Z"/><path class="cls-1" d="M114.38,117.61a5.54,5.54,0,0,1-5.69-5.69V62.15A5.48,5.48,0,0,1,110.31,58a5.66,5.66,0,0,1,9.76,4.13v49.77a5.61,5.61,0,0,1-1.56,4.07A5.48,5.48,0,0,1,114.38,117.61Zm45.87,0a5.54,5.54,0,0,1-5.69-5.69V84.47a20.35,20.35,0,0,0-2.35-10.38,14.72,14.72,0,0,0-6.3-6,20.34,20.34,0,0,0-9.1-2,18.77,18.77,0,0,0-8.48,1.9,15.83,15.83,0,0,0-6,5.08,12.41,12.41,0,0,0-2.24,7.31h-7a23.47,23.47,0,0,1,3.41-12.56,24.57,24.57,0,0,1,9.32-8.76,27.28,27.28,0,0,1,13.28-3.23,28.55,28.55,0,0,1,13.78,3.29,23.79,23.79,0,0,1,9.6,9.65q3.51,6.36,3.51,15.63v27.45a5.54,5.54,0,0,1-5.69,5.69Z"/><path class="cls-1" d="M101,55.67A41.21,41.21,0,0,0,77.8,32.29c-.87-.35-1.75-.67-2.65-1A2.82,2.82,0,0,0,71.44,34v5.47a2.84,2.84,0,0,0,1.76,2.6h0a31.6,31.6,0,0,1,10.55,7.19,32.25,32.25,0,0,1,6.86,10.89,39.17,39.17,0,0,1,0,27A32,32,0,0,1,83.77,98a32.54,32.54,0,0,1-10.55,7.26,33.48,33.48,0,0,1-13.33,2.62,33.51,33.51,0,0,1-13.35-2.62A31.62,31.62,0,0,1,36.06,98a33,33,0,0,1-6.87-10.88,38.42,38.42,0,0,1,0-27,33.23,33.23,0,0,1,6.87-10.89,30.72,30.72,0,0,1,10.48-7.19h0a2.83,2.83,0,0,0,1.76-2.6V34a2.82,2.82,0,0,0-3.71-2.66q-1.36.45-2.7,1a40.64,40.64,0,0,0-14,9.27,42.21,42.21,0,0,0-9.1,14.11,48.23,48.23,0,0,0-3.24,18,48.64,48.64,0,0,0,3.24,18,42,42,0,0,0,9.1,14.18,40.76,40.76,0,0,0,14,9.26,47.71,47.71,0,0,0,18,3.29A47.24,47.24,0,0,0,77.8,115.1,41,41,0,0,0,101,91.66a48.84,48.84,0,0,0,3.24-18A48.43,48.43,0,0,0,101,55.67Z"/><rect class="cls-1" x="53.58" y="9.23" width="12.6" height="60.51" rx="4.68"/><path class="cls-1" d="M175,73.81a2.39,2.39,0,0,1-2.19-1.3,2.87,2.87,0,0,1-.14-2.73,25.15,25.15,0,0,0,2-6,12.18,12.18,0,0,0,.05-4c-.21-1.13-.47-2.22-.76-3.27a12.76,12.76,0,0,1-.45-3.53,5.08,5.08,0,0,1,1.61-3.85,5.38,5.38,0,0,1,3.85-1.52,4.86,4.86,0,0,1,4.3,2.32,10.48,10.48,0,0,1,1.52,5.82,17.67,17.67,0,0,1-1,5.37,40.78,40.78,0,0,1-2.46,5.95,22.8,22.8,0,0,1-3.18,4.84C177,73.17,175.91,73.81,175,73.81Z"/></svg>